<?xml version="1.0" standalone="no"?>
<!DOCTYPE svg PUBLIC "-//W3C//DTD SVG 20010904//EN"
 "http://www.w3.org/TR/2001/REC-SVG-20010904/DTD/svg10.dtd">
<svg version="1.0" xmlns="http://www.w3.org/2000/svg"
 width="900.000000pt" height="704.000000pt" viewBox="0 0 900.000000 704.000000"
 preserveAspectRatio="xMidYMid meet">

<g transform="translate(0.000000,704.000000) scale(0.100000,-0.100000)"
fill="#000000" stroke="none">
<path d="M5605 5189 c-14 -26 -21 -30 -42 -24 -14 3 -32 13 -40 20 -17 17 -39
19 -48 5 -3 -5 -15 -10 -25 -10 -10 0 -26 -7 -35 -16 -10 -10 -27 -15 -46 -12
-17 3 -53 -1 -82 -9 -28 -7 -67 -13 -87 -13 -20 0 -41 -5 -47 -11 -6 -6 -34
-12 -62 -13 -30 -1 -58 -9 -68 -18 -10 -9 -40 -37 -67 -62 -28 -25 -56 -46
-63 -46 -12 0 -20 -65 -13 -95 13 -51 13 -58 -4 -52 -10 4 -26 1 -37 -6 -21
-15 -69 -83 -69 -97 0 -6 -13 -10 -29 -10 -19 0 -35 -8 -45 -22 -30 -43 -90
-34 -112 17 -8 19 -18 35 -23 35 -4 0 -18 9 -31 20 -14 12 -30 18 -39 14 -9
-4 -27 -6 -39 -5 -13 0 -33 -6 -45 -14 -12 -8 -16 -15 -10 -15 17 0 7 -40 -14
-56 -13 -10 -36 -13 -77 -10 -32 3 -61 7 -64 10 -3 3 -11 1 -19 -5 -7 -6 -13
-8 -13 -5 0 4 -10 2 -21 -5 -12 -6 -19 -7 -15 -1 3 5 -1 13 -10 16 -21 8 -21
8 -27 -14 -3 -12 -14 -20 -25 -20 -12 0 -23 -4 -26 -9 -3 -5 -18 -11 -33 -14
-16 -3 -48 -11 -73 -17 -91 -23 -178 -21 -250 7 -8 3 -27 7 -41 8 -33 3 -119
41 -119 53 0 13 -24 15 -129 10 -26 -1 -38 5 -53 25 -11 15 -26 27 -34 27 -8
0 -14 7 -14 15 0 19 -4 19 -39 0 -16 -8 -44 -16 -62 -19 -19 -2 -55 -7 -81
-11 -43 -7 -49 -5 -72 20 -15 16 -24 35 -21 45 8 25 -18 55 -41 45 -10 -5 -23
-9 -28 -9 -6 -1 -13 -15 -18 -32 -5 -19 -26 -46 -53 -68 -24 -21 -44 -40 -43
-44 4 -16 -14 -72 -28 -83 -8 -6 -14 -26 -14 -43 0 -52 -21 -81 -57 -81 -20 0
-38 -8 -48 -20 -9 -11 -13 -14 -10 -6 5 9 0 8 -17 -3 -27 -17 -58 -12 -58 9 0
20 -40 65 -59 65 -9 0 -26 8 -37 18 -43 41 -110 32 -167 -23 -15 -14 -31 -24
-35 -21 -5 3 -21 -9 -37 -26 -28 -29 -28 -31 -10 -44 10 -7 21 -11 26 -9 4 3
11 0 15 -7 4 -7 4 -10 -1 -6 -4 4 -17 3 -28 -3 -11 -6 -17 -7 -13 -1 3 5 -3
17 -14 27 -15 14 -23 15 -34 6 -10 -8 -16 -9 -21 -1 -3 5 -3 10 0 10 3 0 -4
18 -17 41 l-23 41 -49 -7 c-27 -3 -59 -11 -70 -18 -24 -13 -27 -13 -83 -15
-32 -2 -48 -9 -68 -29 -14 -15 -25 -35 -25 -43 0 -9 -7 -26 -16 -39 -14 -19
-14 -25 -3 -31 14 -9 14 -75 1 -95 -5 -5 -9 -26 -11 -45 -1 -19 -6 -52 -11
-73 -9 -43 -4 -69 22 -114 19 -32 17 -96 -3 -108 -4 -3 -5 -13 -2 -22 5 -11 3
-14 -6 -8 -10 6 -11 3 -2 -14 10 -19 8 -22 -16 -32 -64 -26 -74 -32 -61 -41 9
-5 9 -8 1 -8 -6 0 -9 -9 -6 -20 3 -11 8 -20 12 -20 3 0 6 -19 6 -43 0 -32 -4
-41 -15 -39 -8 2 -16 8 -18 13 -2 5 -10 9 -18 9 -9 0 -12 -5 -8 -11 3 -6 -1
-10 -12 -9 -39 4 -53 -1 -59 -20 -4 -11 -10 -18 -15 -15 -4 3 -10 -2 -14 -10
-3 -8 -12 -15 -21 -15 -8 0 -15 -4 -15 -9 0 -5 -20 -19 -45 -31 -32 -15 -50
-32 -59 -55 -8 -18 -24 -39 -36 -45 -17 -9 -21 -9 -15 0 5 7 0 7 -14 -2 -12
-7 -24 -23 -27 -35 -4 -13 -10 -23 -15 -23 -5 0 -9 -8 -9 -19 0 -10 -6 -24
-14 -31 -8 -6 -13 -17 -10 -24 3 -8 -2 -20 -10 -29 -9 -8 -12 -17 -7 -19 5 -2
6 -18 4 -36 -5 -28 -9 -32 -27 -26 -21 6 -21 6 -1 -11 11 -9 15 -14 8 -10 -10
4 -33 -22 -33 -38 0 -2 18 -9 40 -16 26 -8 38 -16 33 -23 -12 -20 -9 -58 4
-58 7 0 13 -5 13 -11 0 -11 59 -99 74 -110 4 -4 5 -29 1 -56 -5 -41 -3 -53 14
-75 12 -14 21 -30 21 -36 0 -5 9 -17 20 -27 11 -10 20 -24 20 -31 0 -7 5 -14
11 -16 11 -4 17 -27 18 -70 1 -16 9 -36 19 -46 10 -10 17 -23 15 -28 -8 -25
36 -47 93 -46 49 0 60 -3 92 -32 53 -47 100 -69 155 -72 46 -2 92 -27 82 -44
-2 -4 4 -15 14 -24 11 -10 22 -28 25 -41 3 -13 16 -25 29 -29 34 -8 77 -44 77
-64 0 -10 9 -23 20 -30 11 -7 20 -23 20 -37 0 -56 24 -107 63 -133 20 -13 37
-29 37 -34 0 -4 11 -13 24 -19 14 -7 22 -17 19 -25 -3 -8 0 -14 6 -14 6 0 17
-12 24 -28 18 -41 48 -61 88 -62 20 0 47 -8 60 -19 19 -15 28 -16 56 -8 27 8
36 7 52 -7 18 -16 22 -16 50 -2 16 9 41 16 56 16 14 0 25 5 25 10 0 10 32 8
91 -6 15 -3 37 -1 49 6 17 9 25 9 38 -2 21 -18 100 -43 108 -36 3 4 31 -6 62
-22 31 -15 71 -30 87 -34 30 -7 106 -39 135 -57 8 -5 31 -18 51 -29 21 -10 43
-25 51 -32 17 -16 42 -32 92 -59 40 -22 76 -58 111 -113 11 -17 50 -62 88 -99
37 -36 67 -73 67 -81 0 -8 28 -33 62 -55 52 -34 71 -41 113 -41 27 0 77 -5
110 -11 33 -6 97 -12 142 -14 50 -1 96 -8 115 -17 18 -9 45 -22 60 -29 15 -7
49 -13 75 -14 27 0 57 -6 68 -13 11 -6 57 -23 103 -38 l83 -26 67 21 c37 11
87 25 111 30 25 6 52 19 60 30 18 22 88 36 179 35 28 0 52 3 52 6 0 4 19 10
42 14 23 4 47 11 54 16 6 6 38 12 70 13 60 4 89 14 179 67 28 16 57 32 65 36
8 4 31 20 50 36 19 15 41 28 50 28 16 0 115 48 151 74 13 9 30 16 39 16 27 0
114 50 180 103 115 93 160 136 160 152 0 5 25 21 56 34 34 15 67 39 86 63 17
21 39 38 49 38 10 0 21 9 24 20 3 11 26 33 50 50 24 17 46 39 50 49 3 11 21
25 40 31 19 6 35 16 35 21 0 6 5 7 10 4 6 -3 10 3 10 14 0 11 12 34 28 52 15
18 21 29 13 24 -11 -6 -13 -4 -8 9 4 10 7 20 7 22 0 2 7 4 15 4 8 0 15 7 15
15 0 8 1 15 3 15 29 0 124 25 134 36 8 8 24 14 35 14 25 0 78 31 78 45 0 6 -5
16 -10 21 -25 25 29 84 76 84 8 0 17 6 20 13 3 8 22 14 45 15 24 1 38 -2 34
-8 -3 -6 -1 -10 6 -10 8 0 9 -4 0 -13 -8 -11 -4 -14 22 -14 17 0 59 -3 93 -7
56 -6 63 -5 101 23 71 51 94 90 93 158 0 32 -2 69 -4 83 -2 14 1 27 5 30 4 3
4 12 -1 20 -7 12 -12 12 -22 2 -17 -17 -24 -15 -48 10 -21 23 -27 63 -10 73 6
3 10 20 10 37 0 23 4 29 15 24 9 -3 15 -1 14 7 -3 25 1 38 11 32 6 -3 10 -2
10 2 0 5 11 20 25 35 14 15 24 31 23 35 0 4 2 19 6 33 4 14 2 39 -4 54 -12 33
-4 48 54 108 20 21 39 50 41 65 2 16 10 46 18 68 10 29 11 45 4 56 -8 12 -5
34 11 83 12 37 22 70 22 74 0 8 -25 44 -51 72 -9 9 -24 51 -34 92 -14 59 -23
79 -41 88 -13 7 -21 16 -19 20 2 4 -7 22 -20 40 -25 34 -33 70 -16 70 5 0 9
10 9 23 0 12 4 35 8 51 4 18 3 27 -3 23 -16 -10 -6 47 16 86 24 44 27 70 7 86
-17 14 -41 -11 -32 -34 8 -22 -11 -18 -24 4 -14 27 -13 31 10 31 20 0 19 2 -8
43 -39 58 -47 77 -56 142 -1 11 -8 30 -14 42 -19 35 -6 52 39 50 31 -2 39 1
39 14 0 10 2 23 5 31 9 22 -50 51 -75 38 -11 -6 -20 -8 -20 -4 0 3 -7 1 -15
-6 -8 -7 -13 -16 -10 -20 9 -14 -17 -17 -62 -6 -30 6 -42 14 -39 23 3 7 1 13
-4 13 -6 0 -10 5 -10 11 0 5 6 7 13 3 6 -4 8 -3 4 1 -13 15 -57 17 -57 3 0 -8
-5 -6 -11 5 -5 9 -18 17 -29 17 -10 0 -20 5 -22 11 -2 6 -24 13 -49 16 -36 4
-49 11 -62 32 -10 16 -17 20 -17 11 -1 -8 -7 1 -14 20 -9 24 -10 39 -3 48 8
10 5 14 -11 19 -12 3 -23 14 -23 24 -3 38 -5 44 -16 42 -7 -2 -14 5 -17 15 -7
20 -60 46 -80 39 -8 -3 -22 1 -33 8 -11 8 -46 13 -82 14 -40 0 -72 6 -87 15
-13 9 -31 16 -40 16 -38 0 -134 33 -134 46 0 8 -5 14 -11 14 -10 0 -65 22 -99
39 -8 5 -17 16 -19 27 -2 10 -10 28 -18 41 -12 18 -19 20 -33 13 -21 -11 -35
2 -45 43 -4 15 -11 30 -16 33 -5 3 -7 10 -4 15 4 5 -2 9 -12 9 -11 0 -24 5
-29 10 -6 6 -50 12 -99 15 -49 2 -91 8 -94 12 -7 10 -111 11 -111 2 0 -3 -16
-6 -35 -5 -25 2 -48 13 -77 40 -26 23 -49 35 -60 33 -11 -3 -18 0 -18 9 0 27
-39 15 -55 -17z m-1015 -517 c0 -14 -11 -21 -26 -15 -8 3 -11 9 -8 14 7 11 34
12 34 1z m-2198 -224 c-9 -9 -15 -9 -24 0 -9 9 -7 12 12 12 19 0 21 -3 12 -12z
m4821 -38 c3 -11 1 -20 -4 -20 -5 0 -9 9 -9 20 0 11 2 20 4 20 2 0 6 -9 9 -20z"/>
<path d="M7490 3990 c0 -5 5 -10 10 -10 6 0 10 5 10 10 0 6 -4 10 -10 10 -5 0
-10 -4 -10 -10z"/>
</g>
</svg>
