<?xml version="1.0" standalone="no"?>
<!DOCTYPE svg PUBLIC "-//W3C//DTD SVG 20010904//EN"
 "http://www.w3.org/TR/2001/REC-SVG-20010904/DTD/svg10.dtd">
<svg version="1.0" xmlns="http://www.w3.org/2000/svg"
 width="300.000000pt" height="297.000000pt" viewBox="0 0 300.000000 297.000000"
 preserveAspectRatio="xMidYMid meet">
<metadata>
Created by potrace 1.10, written by Peter Selinger 2001-2011
</metadata>
<g transform="translate(0.000000,297.000000) scale(0.100000,-0.100000)"
fill="#000000" stroke="none">
<path d="M20 2953 c0 -2 0 -662 0 -1468 l0 -1465 1480 0 1480 0 0 1465 0 1465
-1480 3 c-814 1 -1480 1 -1480 0z m2890 -1468 l0 -1395 -1410 0 -1410 0 0
1395 0 1395 1410 0 1410 0 0 -1395z"/>
<path d="M380 2596 c0 -2 7 -23 15 -46 13 -36 15 -141 15 -700 0 -559 -2 -664
-15 -700 -8 -23 -15 -46 -15 -51 0 -5 70 -9 155 -9 85 0 155 1 155 3 0 2 -7
23 -15 48 -12 35 -15 128 -17 481 -2 240 0 434 5 431 4 -2 7 -10 7 -16 0 -7
47 -124 104 -261 l104 -249 78 2 c44 1 82 5 85 9 5 6 184 421 218 506 4 11 5
-178 3 -420 -4 -390 -6 -444 -22 -487 l-18 -47 159 0 c87 0 159 2 159 4 0 2
-9 25 -20 51 -19 45 -20 69 -20 700 0 629 1 656 20 705 l20 50 -143 0 -142 0
-115 -266 c-63 -145 -128 -298 -145 -339 -16 -41 -32 -75 -35 -74 -3 0 -72
152 -154 339 l-149 340 -139 0 c-76 0 -138 -2 -138 -4z m252 -53 c9 -10 73
-148 143 -308 81 -186 137 -301 156 -320 l28 -29 25 23 c15 14 75 140 151 315
70 160 134 301 141 314 14 21 21 23 100 20 l85 -3 2 -708 2 -707 -85 0 -85 0
3 448 c3 442 3 448 -18 467 -20 18 -21 18 -43 -3 -24 -23 -43 -61 -155 -322
l-67 -155 -51 -3 c-33 -2 -55 2 -61 10 -6 7 -48 103 -94 213 -113 273 -136
307 -173 253 -14 -20 -16 -81 -16 -465 l0 -443 -87 0 -88 0 2 707 c2 390 3
709 3 711 0 1 38 2 83 2 67 0 87 -3 99 -17z"/>
<path d="M1781 1800 c18 -48 19 -85 19 -705 0 -620 -1 -657 -19 -705 l-19 -50
159 0 c87 0 159 2 159 4 0 2 -9 25 -20 51 -19 45 -20 65 -18 459 l3 411 34
-90 c19 -49 101 -256 182 -460 l148 -370 140 -3 c94 -2 141 1 141 8 0 6 -7 27
-15 47 -22 53 -22 1329 0 1393 8 23 15 46 15 51 0 5 -70 9 -155 9 -85 0 -155
-4 -155 -9 0 -5 7 -24 15 -44 12 -28 15 -113 17 -451 2 -229 0 -416 -3 -416
-3 0 -15 26 -26 58 -11 31 -91 238 -179 459 l-159 402 -142 1 -141 0 19 -50z
m257 -47 c12 -27 82 -202 156 -390 145 -368 163 -408 194 -436 19 -18 20 -17
41 9 22 28 22 31 19 446 l-3 418 90 0 90 0 0 -705 0 -705 -33 -6 c-49 -9 -141
1 -156 17 -7 8 -86 197 -175 420 -89 224 -171 416 -182 428 -12 12 -28 21 -37
19 -39 -7 -43 -65 -40 -481 l3 -397 -85 0 -85 0 0 705 0 705 91 0 91 0 21 -47z"/>
</g>
</svg>
